M48
;DRILL file {KiCad 4.0.5} date Sunday, January 29, 2017 'PMt' 09:23:26 PM
;FORMAT={-:-/ absolute / inch / decimal}
FMAT,2
INCH,TZ
T1C0.012
T2C0.016
T3C0.020
T4C0.039
T5C0.040
%
G90
G05
M72
T1
X3.6634Y-2.5394
X3.6969Y-2.3878
X3.7402Y-2.7165
X3.751Y-2.6506
X3.7539Y-2.6004
X3.7795Y-2.5512
X3.8366Y-2.689
X3.878Y-2.4606
X3.8976Y-2.7717
X3.9134Y-2.4882
X3.9213Y-2.5984
X3.9213Y-2.689
X3.9272Y-2.7677
X3.9646Y-2.748
X3.9882Y-2.4862
X3.998Y-2.5197
X4.Y-2.4213
X4.0276Y-2.7047
X4.0315Y-2.6772
X4.1791Y-2.6831
X4.2106Y-2.6004
X4.2933Y-2.5591
X4.3346Y-2.3917
X4.3937Y-2.6043
X4.4055Y-2.6299
X4.6142Y-2.6713
T2
X3.4685Y-2.4862
X3.5472Y-2.3957
X3.563Y-2.874
X3.9843Y-2.5453
X4.0079Y-2.6496
X4.1142Y-2.4232
X4.185Y-2.7854
X4.2323Y-2.4213
X4.2402Y-2.4606
X4.2913Y-2.811
X4.3209Y-2.4587
X4.4587Y-2.8307
X4.5138Y-2.4449
X4.5236Y-2.7264
T3
X4.6102Y-2.3898
X4.6142Y-2.5039
X4.6142Y-2.5551
X4.6929Y-2.7047
T4
X3.5433Y-2.5197
X3.5433Y-2.5984
X3.5433Y-2.6772
X3.5433Y-2.7559
T5
X3.7795Y-2.8543
X3.8795Y-2.8543
X3.9795Y-2.8543
X4.0795Y-2.8543
X4.5669Y-2.8346
X4.6669Y-2.8346
T4
X3.4311Y-2.3622G85X3.4902Y-2.3622
G05
X3.4311Y-2.9134G85X3.4902Y-2.9134
G05
T0
M30
