G04 #@! TF.FileFunction,Copper,L2,Bot,Signal*
%FSLAX46Y46*%
G04 Gerber Fmt 4.6, Leading zero omitted, Abs format (unit mm)*
G04 Created by KiCad (PCBNEW 4.0.5) date Monday, February 13, 2017 'AMt' 09:35:04 AM*
%MOMM*%
%LPD*%
G01*
G04 APERTURE LIST*
%ADD10C,0.100000*%
%ADD11O,3.000000X1.500000*%
%ADD12R,1.524000X1.524000*%
%ADD13C,1.524000*%
%ADD14R,1.727200X2.032000*%
%ADD15O,1.727200X2.032000*%
%ADD16R,2.032000X2.032000*%
%ADD17O,2.032000X2.032000*%
%ADD18C,0.600000*%
%ADD19C,0.500000*%
%ADD20C,0.800000*%
%ADD21C,0.500000*%
%ADD22C,0.300000*%
%ADD23C,0.160000*%
%ADD24C,0.200000*%
G04 APERTURE END LIST*
D10*
D11*
X87900000Y-60000000D03*
D12*
X90000000Y-70000000D03*
D13*
X90000000Y-68000000D03*
X90000000Y-66000000D03*
X90000000Y-64000000D03*
D11*
X87900000Y-74000000D03*
D14*
X96000000Y-72500000D03*
D15*
X98540000Y-72500000D03*
X101080000Y-72500000D03*
X103620000Y-72500000D03*
D16*
X116000000Y-72000000D03*
D17*
X118540000Y-72000000D03*
D18*
X88100000Y-63150000D03*
X90100000Y-60850000D03*
X113250000Y-71900000D03*
X114900000Y-69250000D03*
X114650000Y-62100000D03*
X107700000Y-62500000D03*
X107500000Y-61500000D03*
X109750000Y-62450000D03*
X104500000Y-61550000D03*
X109000000Y-71400000D03*
X106300000Y-70750000D03*
X90500000Y-73000000D03*
D19*
X101600000Y-61500000D03*
X99600000Y-66000000D03*
X102300000Y-68700000D03*
X99600000Y-68300000D03*
X97450000Y-68300000D03*
X95000000Y-69000000D03*
X99400000Y-63200000D03*
X93900000Y-60650000D03*
X93050000Y-64500000D03*
X110100000Y-60750000D03*
D20*
X119200000Y-68700000D03*
X117100000Y-60700000D03*
D19*
X99000000Y-70400000D03*
X109050000Y-65000000D03*
D18*
X101800000Y-67300000D03*
X101200000Y-64650000D03*
D19*
X98500000Y-62500000D03*
X95275000Y-67325000D03*
X106150000Y-68150000D03*
X106950000Y-66050000D03*
X101300000Y-63150000D03*
X117200000Y-67850000D03*
D20*
X117200000Y-64900000D03*
X117200000Y-63600000D03*
D19*
X96000000Y-64800000D03*
X95350000Y-66050000D03*
X101550000Y-64000000D03*
X102400000Y-68000000D03*
X111600000Y-66150000D03*
X100700000Y-69800000D03*
X111900000Y-66800000D03*
X99750000Y-70300000D03*
D21*
X87900000Y-60000000D02*
X87900000Y-61150000D01*
X87900000Y-74000000D02*
X87900000Y-72650000D01*
D22*
X100300000Y-65250000D02*
X100300000Y-65300000D01*
X101600000Y-61500000D02*
X100300000Y-62800000D01*
X100300000Y-62800000D02*
X100300000Y-65250000D01*
X100300000Y-65300000D02*
X99600000Y-66000000D01*
X102300000Y-68700000D02*
X101900000Y-68300000D01*
X101900000Y-68300000D02*
X99600000Y-68300000D01*
X95700000Y-68300000D02*
X97450000Y-68300000D01*
X95000000Y-69000000D02*
X95700000Y-68300000D01*
X99500000Y-63150000D02*
X99500000Y-61350000D01*
X99400000Y-63250000D02*
X99500000Y-63150000D01*
X99400000Y-63200000D02*
X99400000Y-63250000D01*
D21*
X92550000Y-64000000D02*
X92550000Y-62000000D01*
X93050000Y-64500000D02*
X92550000Y-64000000D01*
X90000000Y-70000000D02*
X90000000Y-69800000D01*
X90000000Y-69800000D02*
X86600000Y-66400000D01*
X86600000Y-66400000D02*
X86600000Y-63050000D01*
X86600000Y-63050000D02*
X87650000Y-62000000D01*
X87650000Y-62000000D02*
X92550000Y-62000000D01*
X92550000Y-62000000D02*
X93900000Y-60650000D01*
X110100000Y-60750000D02*
X117050000Y-60750000D01*
X117050000Y-60750000D02*
X117100000Y-60700000D01*
X99250000Y-61350000D02*
X99500000Y-61350000D01*
X99500000Y-61350000D02*
X100800000Y-61350000D01*
X101400000Y-60750000D02*
X110100000Y-60750000D01*
X100800000Y-61350000D02*
X101400000Y-60750000D01*
X98550000Y-60650000D02*
X93900000Y-60650000D01*
X99250000Y-61350000D02*
X98550000Y-60650000D01*
X119200000Y-62800000D02*
X119200000Y-68700000D01*
X117100000Y-60700000D02*
X119200000Y-62800000D01*
D23*
X109050000Y-65000000D02*
X109050000Y-65950000D01*
X99000000Y-70400000D02*
X99000000Y-70050000D01*
X99000000Y-70050000D02*
X99750000Y-69300000D01*
X99750000Y-69300000D02*
X105700000Y-69300000D01*
X105700000Y-69300000D02*
X109050000Y-65950000D01*
D24*
X101800000Y-65250000D02*
X101800000Y-67300000D01*
X101200000Y-64650000D02*
X101800000Y-65250000D01*
D22*
X94450000Y-66500000D02*
X95275000Y-67325000D01*
X94450000Y-65100000D02*
X94450000Y-66500000D01*
X95850000Y-63700000D02*
X94450000Y-65100000D01*
X97300000Y-63700000D02*
X95850000Y-63700000D01*
X98500000Y-62500000D02*
X97300000Y-63700000D01*
D23*
X106950000Y-67350000D02*
X106950000Y-66050000D01*
X106150000Y-68150000D02*
X106950000Y-67350000D01*
D22*
X106400000Y-66050000D02*
X106950000Y-66050000D01*
X103500000Y-63150000D02*
X106400000Y-66050000D01*
X101300000Y-63150000D02*
X103500000Y-63150000D01*
D21*
X117200000Y-67850000D02*
X116000000Y-67850000D01*
X116000000Y-67850000D02*
X116050000Y-67850000D01*
X116050000Y-67850000D02*
X116000000Y-67850000D01*
X116000000Y-66100000D02*
X116000000Y-67850000D01*
X116000000Y-67850000D02*
X116000000Y-72000000D01*
X117200000Y-64900000D02*
X116000000Y-66100000D01*
X117200000Y-63600000D02*
X118250000Y-64650000D01*
X118250000Y-64650000D02*
X118250000Y-71710000D01*
X118250000Y-71710000D02*
X118540000Y-72000000D01*
D23*
X98350000Y-70500000D02*
X100350000Y-72500000D01*
X98350000Y-67150000D02*
X98350000Y-70500000D01*
X96000000Y-64800000D02*
X98350000Y-67150000D01*
X100350000Y-72500000D02*
X101080000Y-72500000D01*
X96700000Y-66000000D02*
X98000000Y-67300000D01*
X98000000Y-67300000D02*
X98000000Y-70750000D01*
X98000000Y-70750000D02*
X98540000Y-71290000D01*
X98540000Y-71290000D02*
X98540000Y-72500000D01*
X95400000Y-66000000D02*
X96700000Y-66000000D01*
X95350000Y-66050000D02*
X95400000Y-66000000D01*
X102400000Y-67550000D02*
X102400000Y-64850000D01*
X101550000Y-64000000D02*
X102400000Y-64850000D01*
X102400000Y-68000000D02*
X102400000Y-67550000D01*
X100900000Y-69950000D02*
X105650000Y-69950000D01*
X105650000Y-69950000D02*
X106350000Y-69250000D01*
X106350000Y-69250000D02*
X109450000Y-66150000D01*
X109450000Y-66150000D02*
X111600000Y-66150000D01*
X100850000Y-69950000D02*
X100900000Y-69950000D01*
X100700000Y-69800000D02*
X100850000Y-69950000D01*
X109350000Y-66800000D02*
X111900000Y-66800000D01*
X105850000Y-70300000D02*
X109350000Y-66800000D01*
X99750000Y-70300000D02*
X105850000Y-70300000D01*
X99750000Y-70300000D02*
X99750000Y-70300000D01*
G36*
X91030692Y-60322754D02*
X91059393Y-60328463D01*
X91075000Y-60330000D01*
X93526989Y-60330000D01*
X93484840Y-60372075D01*
X93484755Y-60372280D01*
X92347036Y-61510000D01*
X87650000Y-61510000D01*
X87462485Y-61547299D01*
X87303518Y-61653518D01*
X86253518Y-62703518D01*
X86147299Y-62862485D01*
X86110000Y-63050000D01*
X86110000Y-66400000D01*
X86147299Y-66587515D01*
X86253518Y-66746482D01*
X87967094Y-68460058D01*
X87733647Y-68459854D01*
X87424800Y-68587467D01*
X87188298Y-68823557D01*
X87060146Y-69132181D01*
X87059854Y-69466353D01*
X87187467Y-69775200D01*
X87423557Y-70011702D01*
X87732181Y-70139854D01*
X88066353Y-70140146D01*
X88375200Y-70012533D01*
X88611702Y-69776443D01*
X88739854Y-69467819D01*
X88740059Y-69233023D01*
X88993299Y-69486263D01*
X88993299Y-70762000D01*
X89010034Y-70850938D01*
X89062596Y-70932623D01*
X89142798Y-70987422D01*
X89238000Y-71006701D01*
X90762000Y-71006701D01*
X90850938Y-70989966D01*
X90932623Y-70937404D01*
X90987422Y-70857202D01*
X91006701Y-70762000D01*
X91006701Y-69238000D01*
X90989966Y-69149062D01*
X90937404Y-69067377D01*
X90857202Y-69012578D01*
X90762000Y-68993299D01*
X90219913Y-68993299D01*
X90566846Y-68849949D01*
X90848959Y-68568328D01*
X91001825Y-68200184D01*
X91002173Y-67801564D01*
X90849949Y-67433154D01*
X90568328Y-67151041D01*
X90204138Y-66999817D01*
X90566846Y-66849949D01*
X90848959Y-66568328D01*
X91001825Y-66200184D01*
X91002173Y-65801564D01*
X90849949Y-65433154D01*
X90568328Y-65151041D01*
X90445408Y-65100000D01*
X94059999Y-65100000D01*
X94060000Y-65100005D01*
X94060000Y-66499995D01*
X94059999Y-66500000D01*
X94077902Y-66590000D01*
X94089687Y-66649247D01*
X94154657Y-66746482D01*
X94174228Y-66775772D01*
X94784946Y-67386490D01*
X94784915Y-67422039D01*
X94859356Y-67602200D01*
X94997075Y-67740160D01*
X95177105Y-67814915D01*
X95372039Y-67815085D01*
X95552200Y-67740644D01*
X95690160Y-67602925D01*
X95764915Y-67422895D01*
X95765085Y-67227961D01*
X95690644Y-67047800D01*
X95552925Y-66909840D01*
X95372895Y-66835085D01*
X95336597Y-66835053D01*
X94840000Y-66338456D01*
X94840000Y-65261544D01*
X96011544Y-64090000D01*
X97299995Y-64090000D01*
X97300000Y-64090001D01*
X97424485Y-64065239D01*
X97449247Y-64060313D01*
X97575772Y-63975772D01*
X98561489Y-62990054D01*
X98597039Y-62990085D01*
X98777200Y-62915644D01*
X98915160Y-62777925D01*
X98989915Y-62597895D01*
X98990085Y-62402961D01*
X98915644Y-62222800D01*
X98777925Y-62084840D01*
X98597895Y-62010085D01*
X98402961Y-62009915D01*
X98222800Y-62084356D01*
X98084840Y-62222075D01*
X98010085Y-62402105D01*
X98010053Y-62438403D01*
X97138456Y-63310000D01*
X95850005Y-63310000D01*
X95850000Y-63309999D01*
X95725515Y-63334761D01*
X95700753Y-63339687D01*
X95611615Y-63399247D01*
X95574228Y-63424228D01*
X94174228Y-64824228D01*
X94089687Y-64950753D01*
X94089687Y-64950754D01*
X94059999Y-65100000D01*
X90445408Y-65100000D01*
X90200184Y-64998175D01*
X89801564Y-64997827D01*
X89433154Y-65150051D01*
X89151041Y-65431672D01*
X88998175Y-65799816D01*
X88997827Y-66198436D01*
X89150051Y-66566846D01*
X89431672Y-66848959D01*
X89795862Y-67000183D01*
X89433154Y-67150051D01*
X89151041Y-67431672D01*
X88998175Y-67799816D01*
X88997909Y-68104945D01*
X87090000Y-66197036D01*
X87090000Y-64939312D01*
X87187467Y-65175200D01*
X87423557Y-65411702D01*
X87732181Y-65539854D01*
X88066353Y-65540146D01*
X88375200Y-65412533D01*
X88611702Y-65176443D01*
X88739854Y-64867819D01*
X88740146Y-64533647D01*
X88612533Y-64224800D01*
X88376443Y-63988298D01*
X88067819Y-63860146D01*
X87733647Y-63859854D01*
X87424800Y-63987467D01*
X87188298Y-64223557D01*
X87090000Y-64460285D01*
X87090000Y-63252964D01*
X87852964Y-62490000D01*
X92060000Y-62490000D01*
X92060000Y-64000000D01*
X92097299Y-64187515D01*
X92203518Y-64346482D01*
X92702930Y-64845894D01*
X92772075Y-64915160D01*
X92952105Y-64989915D01*
X93147039Y-64990085D01*
X93327200Y-64915644D01*
X93465160Y-64777925D01*
X93539915Y-64597895D01*
X93540085Y-64402961D01*
X93465644Y-64222800D01*
X93327925Y-64084840D01*
X93327718Y-64084754D01*
X93040000Y-63797036D01*
X93040000Y-62202964D01*
X93104305Y-62138659D01*
X93147004Y-62353322D01*
X93347145Y-62652855D01*
X93646678Y-62852996D01*
X94000000Y-62923276D01*
X94353322Y-62852996D01*
X94652855Y-62652855D01*
X94852996Y-62353322D01*
X94923276Y-62000000D01*
X94852996Y-61646678D01*
X94652855Y-61347145D01*
X94353322Y-61147004D01*
X94318110Y-61140000D01*
X98347036Y-61140000D01*
X98903517Y-61696482D01*
X99047402Y-61792623D01*
X99062485Y-61802701D01*
X99110000Y-61812152D01*
X99110000Y-62797134D01*
X98984840Y-62922075D01*
X98910085Y-63102105D01*
X98909915Y-63297039D01*
X98984356Y-63477200D01*
X99122075Y-63615160D01*
X99302105Y-63689915D01*
X99497039Y-63690085D01*
X99677200Y-63615644D01*
X99815160Y-63477925D01*
X99889915Y-63297895D01*
X99890085Y-63102961D01*
X99890000Y-63102755D01*
X99890000Y-61840000D01*
X100800000Y-61840000D01*
X100987515Y-61802701D01*
X101146482Y-61696482D01*
X101602964Y-61240000D01*
X110099572Y-61240000D01*
X110197039Y-61240085D01*
X110197245Y-61240000D01*
X116734751Y-61240000D01*
X116736996Y-61242249D01*
X116972138Y-61339888D01*
X117046989Y-61339954D01*
X118710000Y-63002965D01*
X118710000Y-64499180D01*
X118702701Y-64462485D01*
X118596482Y-64303518D01*
X117840046Y-63547082D01*
X117840111Y-63473255D01*
X117742882Y-63237943D01*
X117563004Y-63057751D01*
X117327862Y-62960112D01*
X117073255Y-62959889D01*
X116837943Y-63057118D01*
X116657751Y-63236996D01*
X116560112Y-63472138D01*
X116559889Y-63726745D01*
X116657118Y-63962057D01*
X116836996Y-64142249D01*
X117072138Y-64239888D01*
X117146990Y-64239954D01*
X117167007Y-64259971D01*
X117073255Y-64259889D01*
X116837943Y-64357118D01*
X116657751Y-64536996D01*
X116560112Y-64772138D01*
X116560046Y-64846989D01*
X115653518Y-65753518D01*
X115547299Y-65912485D01*
X115510000Y-66100000D01*
X115510000Y-70739299D01*
X114984000Y-70739299D01*
X114895062Y-70756034D01*
X114813377Y-70808596D01*
X114758578Y-70888798D01*
X114739299Y-70984000D01*
X114739299Y-73016000D01*
X114756034Y-73104938D01*
X114808596Y-73186623D01*
X114888798Y-73241422D01*
X114984000Y-73260701D01*
X117016000Y-73260701D01*
X117104938Y-73243966D01*
X117186623Y-73191404D01*
X117241422Y-73111202D01*
X117260701Y-73016000D01*
X117260701Y-72006571D01*
X117355001Y-72480650D01*
X117627268Y-72888126D01*
X118034744Y-73160393D01*
X118242101Y-73201639D01*
X117057793Y-73596408D01*
X116912413Y-73620000D01*
X101616968Y-73620000D01*
X101860363Y-73457369D01*
X102099593Y-73099335D01*
X102183600Y-72677006D01*
X102183600Y-72322994D01*
X102099593Y-71900665D01*
X101860363Y-71542631D01*
X101502329Y-71303401D01*
X101080000Y-71219394D01*
X100657671Y-71303401D01*
X100299637Y-71542631D01*
X100117607Y-71815059D01*
X99164683Y-70862135D01*
X99277200Y-70815644D01*
X99415160Y-70677925D01*
X99420960Y-70663956D01*
X99472075Y-70715160D01*
X99652105Y-70789915D01*
X99847039Y-70790085D01*
X100027200Y-70715644D01*
X100123011Y-70620000D01*
X105850000Y-70620000D01*
X105972459Y-70595641D01*
X106076274Y-70526274D01*
X109482549Y-67120000D01*
X111527081Y-67120000D01*
X111622075Y-67215160D01*
X111802105Y-67289915D01*
X111997039Y-67290085D01*
X112177200Y-67215644D01*
X112315160Y-67077925D01*
X112389915Y-66897895D01*
X112390085Y-66702961D01*
X112315644Y-66522800D01*
X112177925Y-66384840D01*
X112054356Y-66333530D01*
X112089915Y-66247895D01*
X112090085Y-66052961D01*
X112015644Y-65872800D01*
X111877925Y-65734840D01*
X111697895Y-65660085D01*
X111502961Y-65659915D01*
X111322800Y-65734356D01*
X111226989Y-65830000D01*
X109450000Y-65830000D01*
X109370000Y-65845913D01*
X109370000Y-65372919D01*
X109465160Y-65277925D01*
X109539915Y-65097895D01*
X109540085Y-64902961D01*
X109465644Y-64722800D01*
X109327925Y-64584840D01*
X109147895Y-64510085D01*
X108952961Y-64509915D01*
X108772800Y-64584356D01*
X108634840Y-64722075D01*
X108560085Y-64902105D01*
X108559915Y-65097039D01*
X108634356Y-65277200D01*
X108730000Y-65373011D01*
X108730000Y-65817452D01*
X107270000Y-67277452D01*
X107270000Y-66422919D01*
X107365160Y-66327925D01*
X107439915Y-66147895D01*
X107440085Y-65952961D01*
X107365644Y-65772800D01*
X107227925Y-65634840D01*
X107047895Y-65560085D01*
X106852961Y-65559915D01*
X106672800Y-65634356D01*
X106647111Y-65660000D01*
X106561543Y-65660000D01*
X103775772Y-62874228D01*
X103743996Y-62852996D01*
X103649247Y-62789687D01*
X103622446Y-62784356D01*
X103500000Y-62759999D01*
X103499995Y-62760000D01*
X101603041Y-62760000D01*
X101577925Y-62734840D01*
X101397895Y-62660085D01*
X101202961Y-62659915D01*
X101022800Y-62734356D01*
X100884840Y-62872075D01*
X100810085Y-63052105D01*
X100809915Y-63247039D01*
X100884356Y-63427200D01*
X101022075Y-63565160D01*
X101202105Y-63639915D01*
X101217131Y-63639928D01*
X101134840Y-63722075D01*
X101060085Y-63902105D01*
X101059915Y-64097039D01*
X101069290Y-64119728D01*
X100894514Y-64191944D01*
X100742477Y-64343715D01*
X100660094Y-64542116D01*
X100659907Y-64756941D01*
X100741944Y-64955486D01*
X100893715Y-65107523D01*
X101092116Y-65189906D01*
X101259219Y-65190051D01*
X101460000Y-65390832D01*
X101460000Y-66876398D01*
X101342477Y-66993715D01*
X101260094Y-67192116D01*
X101259907Y-67406941D01*
X101341944Y-67605486D01*
X101493715Y-67757523D01*
X101692116Y-67839906D01*
X101906941Y-67840093D01*
X101941819Y-67825682D01*
X101910085Y-67902105D01*
X101909915Y-68097039D01*
X101984356Y-68277200D01*
X102122075Y-68415160D01*
X102302105Y-68489915D01*
X102497039Y-68490085D01*
X102677200Y-68415644D01*
X102815160Y-68277925D01*
X102889915Y-68097895D01*
X102890085Y-67902961D01*
X102815644Y-67722800D01*
X102720000Y-67626989D01*
X102720000Y-64850000D01*
X102714874Y-64824228D01*
X102695642Y-64727542D01*
X102626275Y-64623726D01*
X102039968Y-64037419D01*
X102040085Y-63902961D01*
X101965644Y-63722800D01*
X101827925Y-63584840D01*
X101719938Y-63540000D01*
X103338456Y-63540000D01*
X106124226Y-66325769D01*
X106124228Y-66325772D01*
X106250753Y-66410313D01*
X106400000Y-66440000D01*
X106630000Y-66440000D01*
X106630000Y-67217452D01*
X106187420Y-67660032D01*
X106052961Y-67659915D01*
X105872800Y-67734356D01*
X105734840Y-67872075D01*
X105660085Y-68052105D01*
X105659915Y-68247039D01*
X105734356Y-68427200D01*
X105872075Y-68565160D01*
X105949954Y-68597498D01*
X105567452Y-68980000D01*
X99750000Y-68980000D01*
X99627541Y-69004359D01*
X99564500Y-69046482D01*
X99523726Y-69073726D01*
X98773726Y-69823726D01*
X98704359Y-69927541D01*
X98685688Y-70021403D01*
X98670000Y-70037064D01*
X98670000Y-67150000D01*
X98645641Y-67027541D01*
X98576274Y-66923726D01*
X96489968Y-64837420D01*
X96490085Y-64702961D01*
X96415644Y-64522800D01*
X96277925Y-64384840D01*
X96097895Y-64310085D01*
X95902961Y-64309915D01*
X95722800Y-64384356D01*
X95584840Y-64522075D01*
X95510085Y-64702105D01*
X95509915Y-64897039D01*
X95584356Y-65077200D01*
X95722075Y-65215160D01*
X95902105Y-65289915D01*
X96037485Y-65290033D01*
X96427452Y-65680000D01*
X95673006Y-65680000D01*
X95627925Y-65634840D01*
X95447895Y-65560085D01*
X95252961Y-65559915D01*
X95072800Y-65634356D01*
X94934840Y-65772075D01*
X94860085Y-65952105D01*
X94859915Y-66147039D01*
X94934356Y-66327200D01*
X95072075Y-66465160D01*
X95252105Y-66539915D01*
X95447039Y-66540085D01*
X95627200Y-66465644D01*
X95765160Y-66327925D01*
X95768451Y-66320000D01*
X96567452Y-66320000D01*
X97680000Y-67432548D01*
X97680000Y-70750000D01*
X97704359Y-70872459D01*
X97747754Y-70937404D01*
X97773726Y-70976274D01*
X98107589Y-71310137D01*
X97759637Y-71542631D01*
X97520407Y-71900665D01*
X97436400Y-72322994D01*
X97436400Y-72677006D01*
X97520407Y-73099335D01*
X97759637Y-73457369D01*
X98003032Y-73620000D01*
X97083011Y-73620000D01*
X97089022Y-73611202D01*
X97108301Y-73516000D01*
X97108301Y-71484000D01*
X97091566Y-71395062D01*
X97039004Y-71313377D01*
X96958802Y-71258578D01*
X96863600Y-71239299D01*
X95136400Y-71239299D01*
X95047462Y-71256034D01*
X94965777Y-71308596D01*
X94910978Y-71388798D01*
X94891699Y-71484000D01*
X94891699Y-71719691D01*
X94875335Y-71637424D01*
X94669953Y-71330047D01*
X94362576Y-71124665D01*
X94000000Y-71052544D01*
X93637424Y-71124665D01*
X93330047Y-71330047D01*
X93124665Y-71637424D01*
X93052544Y-72000000D01*
X93124665Y-72362576D01*
X93330047Y-72669953D01*
X93637424Y-72875335D01*
X94000000Y-72947456D01*
X94362576Y-72875335D01*
X94669953Y-72669953D01*
X94875335Y-72362576D01*
X94891699Y-72280309D01*
X94891699Y-73516000D01*
X94908434Y-73604938D01*
X94918126Y-73620000D01*
X91100000Y-73620000D01*
X91084393Y-73621537D01*
X91046125Y-73629149D01*
X91017287Y-73641094D01*
X90984844Y-73662771D01*
X90962771Y-73684844D01*
X90962667Y-73685000D01*
X86258514Y-73685000D01*
X86232827Y-73555864D01*
X86232389Y-73554806D01*
X86185793Y-73442312D01*
X85969020Y-73117888D01*
X85882112Y-73030980D01*
X85882109Y-73030979D01*
X85557688Y-72814207D01*
X85444137Y-72767173D01*
X85444136Y-72767173D01*
X85315000Y-72741486D01*
X85315000Y-61258514D01*
X85444136Y-61232827D01*
X85444137Y-61232827D01*
X85557688Y-61185793D01*
X85882109Y-60969021D01*
X85882112Y-60969020D01*
X85969020Y-60882112D01*
X86185793Y-60557688D01*
X86232827Y-60444137D01*
X86232827Y-60444136D01*
X86237100Y-60422656D01*
X86238516Y-60419115D01*
X86242794Y-60404533D01*
X86260037Y-60315000D01*
X91011972Y-60315000D01*
X91030692Y-60322754D01*
X91030692Y-60322754D01*
G37*
X91030692Y-60322754D02*
X91059393Y-60328463D01*
X91075000Y-60330000D01*
X93526989Y-60330000D01*
X93484840Y-60372075D01*
X93484755Y-60372280D01*
X92347036Y-61510000D01*
X87650000Y-61510000D01*
X87462485Y-61547299D01*
X87303518Y-61653518D01*
X86253518Y-62703518D01*
X86147299Y-62862485D01*
X86110000Y-63050000D01*
X86110000Y-66400000D01*
X86147299Y-66587515D01*
X86253518Y-66746482D01*
X87967094Y-68460058D01*
X87733647Y-68459854D01*
X87424800Y-68587467D01*
X87188298Y-68823557D01*
X87060146Y-69132181D01*
X87059854Y-69466353D01*
X87187467Y-69775200D01*
X87423557Y-70011702D01*
X87732181Y-70139854D01*
X88066353Y-70140146D01*
X88375200Y-70012533D01*
X88611702Y-69776443D01*
X88739854Y-69467819D01*
X88740059Y-69233023D01*
X88993299Y-69486263D01*
X88993299Y-70762000D01*
X89010034Y-70850938D01*
X89062596Y-70932623D01*
X89142798Y-70987422D01*
X89238000Y-71006701D01*
X90762000Y-71006701D01*
X90850938Y-70989966D01*
X90932623Y-70937404D01*
X90987422Y-70857202D01*
X91006701Y-70762000D01*
X91006701Y-69238000D01*
X90989966Y-69149062D01*
X90937404Y-69067377D01*
X90857202Y-69012578D01*
X90762000Y-68993299D01*
X90219913Y-68993299D01*
X90566846Y-68849949D01*
X90848959Y-68568328D01*
X91001825Y-68200184D01*
X91002173Y-67801564D01*
X90849949Y-67433154D01*
X90568328Y-67151041D01*
X90204138Y-66999817D01*
X90566846Y-66849949D01*
X90848959Y-66568328D01*
X91001825Y-66200184D01*
X91002173Y-65801564D01*
X90849949Y-65433154D01*
X90568328Y-65151041D01*
X90445408Y-65100000D01*
X94059999Y-65100000D01*
X94060000Y-65100005D01*
X94060000Y-66499995D01*
X94059999Y-66500000D01*
X94077902Y-66590000D01*
X94089687Y-66649247D01*
X94154657Y-66746482D01*
X94174228Y-66775772D01*
X94784946Y-67386490D01*
X94784915Y-67422039D01*
X94859356Y-67602200D01*
X94997075Y-67740160D01*
X95177105Y-67814915D01*
X95372039Y-67815085D01*
X95552200Y-67740644D01*
X95690160Y-67602925D01*
X95764915Y-67422895D01*
X95765085Y-67227961D01*
X95690644Y-67047800D01*
X95552925Y-66909840D01*
X95372895Y-66835085D01*
X95336597Y-66835053D01*
X94840000Y-66338456D01*
X94840000Y-65261544D01*
X96011544Y-64090000D01*
X97299995Y-64090000D01*
X97300000Y-64090001D01*
X97424485Y-64065239D01*
X97449247Y-64060313D01*
X97575772Y-63975772D01*
X98561489Y-62990054D01*
X98597039Y-62990085D01*
X98777200Y-62915644D01*
X98915160Y-62777925D01*
X98989915Y-62597895D01*
X98990085Y-62402961D01*
X98915644Y-62222800D01*
X98777925Y-62084840D01*
X98597895Y-62010085D01*
X98402961Y-62009915D01*
X98222800Y-62084356D01*
X98084840Y-62222075D01*
X98010085Y-62402105D01*
X98010053Y-62438403D01*
X97138456Y-63310000D01*
X95850005Y-63310000D01*
X95850000Y-63309999D01*
X95725515Y-63334761D01*
X95700753Y-63339687D01*
X95611615Y-63399247D01*
X95574228Y-63424228D01*
X94174228Y-64824228D01*
X94089687Y-64950753D01*
X94089687Y-64950754D01*
X94059999Y-65100000D01*
X90445408Y-65100000D01*
X90200184Y-64998175D01*
X89801564Y-64997827D01*
X89433154Y-65150051D01*
X89151041Y-65431672D01*
X88998175Y-65799816D01*
X88997827Y-66198436D01*
X89150051Y-66566846D01*
X89431672Y-66848959D01*
X89795862Y-67000183D01*
X89433154Y-67150051D01*
X89151041Y-67431672D01*
X88998175Y-67799816D01*
X88997909Y-68104945D01*
X87090000Y-66197036D01*
X87090000Y-64939312D01*
X87187467Y-65175200D01*
X87423557Y-65411702D01*
X87732181Y-65539854D01*
X88066353Y-65540146D01*
X88375200Y-65412533D01*
X88611702Y-65176443D01*
X88739854Y-64867819D01*
X88740146Y-64533647D01*
X88612533Y-64224800D01*
X88376443Y-63988298D01*
X88067819Y-63860146D01*
X87733647Y-63859854D01*
X87424800Y-63987467D01*
X87188298Y-64223557D01*
X87090000Y-64460285D01*
X87090000Y-63252964D01*
X87852964Y-62490000D01*
X92060000Y-62490000D01*
X92060000Y-64000000D01*
X92097299Y-64187515D01*
X92203518Y-64346482D01*
X92702930Y-64845894D01*
X92772075Y-64915160D01*
X92952105Y-64989915D01*
X93147039Y-64990085D01*
X93327200Y-64915644D01*
X93465160Y-64777925D01*
X93539915Y-64597895D01*
X93540085Y-64402961D01*
X93465644Y-64222800D01*
X93327925Y-64084840D01*
X93327718Y-64084754D01*
X93040000Y-63797036D01*
X93040000Y-62202964D01*
X93104305Y-62138659D01*
X93147004Y-62353322D01*
X93347145Y-62652855D01*
X93646678Y-62852996D01*
X94000000Y-62923276D01*
X94353322Y-62852996D01*
X94652855Y-62652855D01*
X94852996Y-62353322D01*
X94923276Y-62000000D01*
X94852996Y-61646678D01*
X94652855Y-61347145D01*
X94353322Y-61147004D01*
X94318110Y-61140000D01*
X98347036Y-61140000D01*
X98903517Y-61696482D01*
X99047402Y-61792623D01*
X99062485Y-61802701D01*
X99110000Y-61812152D01*
X99110000Y-62797134D01*
X98984840Y-62922075D01*
X98910085Y-63102105D01*
X98909915Y-63297039D01*
X98984356Y-63477200D01*
X99122075Y-63615160D01*
X99302105Y-63689915D01*
X99497039Y-63690085D01*
X99677200Y-63615644D01*
X99815160Y-63477925D01*
X99889915Y-63297895D01*
X99890085Y-63102961D01*
X99890000Y-63102755D01*
X99890000Y-61840000D01*
X100800000Y-61840000D01*
X100987515Y-61802701D01*
X101146482Y-61696482D01*
X101602964Y-61240000D01*
X110099572Y-61240000D01*
X110197039Y-61240085D01*
X110197245Y-61240000D01*
X116734751Y-61240000D01*
X116736996Y-61242249D01*
X116972138Y-61339888D01*
X117046989Y-61339954D01*
X118710000Y-63002965D01*
X118710000Y-64499180D01*
X118702701Y-64462485D01*
X118596482Y-64303518D01*
X117840046Y-63547082D01*
X117840111Y-63473255D01*
X117742882Y-63237943D01*
X117563004Y-63057751D01*
X117327862Y-62960112D01*
X117073255Y-62959889D01*
X116837943Y-63057118D01*
X116657751Y-63236996D01*
X116560112Y-63472138D01*
X116559889Y-63726745D01*
X116657118Y-63962057D01*
X116836996Y-64142249D01*
X117072138Y-64239888D01*
X117146990Y-64239954D01*
X117167007Y-64259971D01*
X117073255Y-64259889D01*
X116837943Y-64357118D01*
X116657751Y-64536996D01*
X116560112Y-64772138D01*
X116560046Y-64846989D01*
X115653518Y-65753518D01*
X115547299Y-65912485D01*
X115510000Y-66100000D01*
X115510000Y-70739299D01*
X114984000Y-70739299D01*
X114895062Y-70756034D01*
X114813377Y-70808596D01*
X114758578Y-70888798D01*
X114739299Y-70984000D01*
X114739299Y-73016000D01*
X114756034Y-73104938D01*
X114808596Y-73186623D01*
X114888798Y-73241422D01*
X114984000Y-73260701D01*
X117016000Y-73260701D01*
X117104938Y-73243966D01*
X117186623Y-73191404D01*
X117241422Y-73111202D01*
X117260701Y-73016000D01*
X117260701Y-72006571D01*
X117355001Y-72480650D01*
X117627268Y-72888126D01*
X118034744Y-73160393D01*
X118242101Y-73201639D01*
X117057793Y-73596408D01*
X116912413Y-73620000D01*
X101616968Y-73620000D01*
X101860363Y-73457369D01*
X102099593Y-73099335D01*
X102183600Y-72677006D01*
X102183600Y-72322994D01*
X102099593Y-71900665D01*
X101860363Y-71542631D01*
X101502329Y-71303401D01*
X101080000Y-71219394D01*
X100657671Y-71303401D01*
X100299637Y-71542631D01*
X100117607Y-71815059D01*
X99164683Y-70862135D01*
X99277200Y-70815644D01*
X99415160Y-70677925D01*
X99420960Y-70663956D01*
X99472075Y-70715160D01*
X99652105Y-70789915D01*
X99847039Y-70790085D01*
X100027200Y-70715644D01*
X100123011Y-70620000D01*
X105850000Y-70620000D01*
X105972459Y-70595641D01*
X106076274Y-70526274D01*
X109482549Y-67120000D01*
X111527081Y-67120000D01*
X111622075Y-67215160D01*
X111802105Y-67289915D01*
X111997039Y-67290085D01*
X112177200Y-67215644D01*
X112315160Y-67077925D01*
X112389915Y-66897895D01*
X112390085Y-66702961D01*
X112315644Y-66522800D01*
X112177925Y-66384840D01*
X112054356Y-66333530D01*
X112089915Y-66247895D01*
X112090085Y-66052961D01*
X112015644Y-65872800D01*
X111877925Y-65734840D01*
X111697895Y-65660085D01*
X111502961Y-65659915D01*
X111322800Y-65734356D01*
X111226989Y-65830000D01*
X109450000Y-65830000D01*
X109370000Y-65845913D01*
X109370000Y-65372919D01*
X109465160Y-65277925D01*
X109539915Y-65097895D01*
X109540085Y-64902961D01*
X109465644Y-64722800D01*
X109327925Y-64584840D01*
X109147895Y-64510085D01*
X108952961Y-64509915D01*
X108772800Y-64584356D01*
X108634840Y-64722075D01*
X108560085Y-64902105D01*
X108559915Y-65097039D01*
X108634356Y-65277200D01*
X108730000Y-65373011D01*
X108730000Y-65817452D01*
X107270000Y-67277452D01*
X107270000Y-66422919D01*
X107365160Y-66327925D01*
X107439915Y-66147895D01*
X107440085Y-65952961D01*
X107365644Y-65772800D01*
X107227925Y-65634840D01*
X107047895Y-65560085D01*
X106852961Y-65559915D01*
X106672800Y-65634356D01*
X106647111Y-65660000D01*
X106561543Y-65660000D01*
X103775772Y-62874228D01*
X103743996Y-62852996D01*
X103649247Y-62789687D01*
X103622446Y-62784356D01*
X103500000Y-62759999D01*
X103499995Y-62760000D01*
X101603041Y-62760000D01*
X101577925Y-62734840D01*
X101397895Y-62660085D01*
X101202961Y-62659915D01*
X101022800Y-62734356D01*
X100884840Y-62872075D01*
X100810085Y-63052105D01*
X100809915Y-63247039D01*
X100884356Y-63427200D01*
X101022075Y-63565160D01*
X101202105Y-63639915D01*
X101217131Y-63639928D01*
X101134840Y-63722075D01*
X101060085Y-63902105D01*
X101059915Y-64097039D01*
X101069290Y-64119728D01*
X100894514Y-64191944D01*
X100742477Y-64343715D01*
X100660094Y-64542116D01*
X100659907Y-64756941D01*
X100741944Y-64955486D01*
X100893715Y-65107523D01*
X101092116Y-65189906D01*
X101259219Y-65190051D01*
X101460000Y-65390832D01*
X101460000Y-66876398D01*
X101342477Y-66993715D01*
X101260094Y-67192116D01*
X101259907Y-67406941D01*
X101341944Y-67605486D01*
X101493715Y-67757523D01*
X101692116Y-67839906D01*
X101906941Y-67840093D01*
X101941819Y-67825682D01*
X101910085Y-67902105D01*
X101909915Y-68097039D01*
X101984356Y-68277200D01*
X102122075Y-68415160D01*
X102302105Y-68489915D01*
X102497039Y-68490085D01*
X102677200Y-68415644D01*
X102815160Y-68277925D01*
X102889915Y-68097895D01*
X102890085Y-67902961D01*
X102815644Y-67722800D01*
X102720000Y-67626989D01*
X102720000Y-64850000D01*
X102714874Y-64824228D01*
X102695642Y-64727542D01*
X102626275Y-64623726D01*
X102039968Y-64037419D01*
X102040085Y-63902961D01*
X101965644Y-63722800D01*
X101827925Y-63584840D01*
X101719938Y-63540000D01*
X103338456Y-63540000D01*
X106124226Y-66325769D01*
X106124228Y-66325772D01*
X106250753Y-66410313D01*
X106400000Y-66440000D01*
X106630000Y-66440000D01*
X106630000Y-67217452D01*
X106187420Y-67660032D01*
X106052961Y-67659915D01*
X105872800Y-67734356D01*
X105734840Y-67872075D01*
X105660085Y-68052105D01*
X105659915Y-68247039D01*
X105734356Y-68427200D01*
X105872075Y-68565160D01*
X105949954Y-68597498D01*
X105567452Y-68980000D01*
X99750000Y-68980000D01*
X99627541Y-69004359D01*
X99564500Y-69046482D01*
X99523726Y-69073726D01*
X98773726Y-69823726D01*
X98704359Y-69927541D01*
X98685688Y-70021403D01*
X98670000Y-70037064D01*
X98670000Y-67150000D01*
X98645641Y-67027541D01*
X98576274Y-66923726D01*
X96489968Y-64837420D01*
X96490085Y-64702961D01*
X96415644Y-64522800D01*
X96277925Y-64384840D01*
X96097895Y-64310085D01*
X95902961Y-64309915D01*
X95722800Y-64384356D01*
X95584840Y-64522075D01*
X95510085Y-64702105D01*
X95509915Y-64897039D01*
X95584356Y-65077200D01*
X95722075Y-65215160D01*
X95902105Y-65289915D01*
X96037485Y-65290033D01*
X96427452Y-65680000D01*
X95673006Y-65680000D01*
X95627925Y-65634840D01*
X95447895Y-65560085D01*
X95252961Y-65559915D01*
X95072800Y-65634356D01*
X94934840Y-65772075D01*
X94860085Y-65952105D01*
X94859915Y-66147039D01*
X94934356Y-66327200D01*
X95072075Y-66465160D01*
X95252105Y-66539915D01*
X95447039Y-66540085D01*
X95627200Y-66465644D01*
X95765160Y-66327925D01*
X95768451Y-66320000D01*
X96567452Y-66320000D01*
X97680000Y-67432548D01*
X97680000Y-70750000D01*
X97704359Y-70872459D01*
X97747754Y-70937404D01*
X97773726Y-70976274D01*
X98107589Y-71310137D01*
X97759637Y-71542631D01*
X97520407Y-71900665D01*
X97436400Y-72322994D01*
X97436400Y-72677006D01*
X97520407Y-73099335D01*
X97759637Y-73457369D01*
X98003032Y-73620000D01*
X97083011Y-73620000D01*
X97089022Y-73611202D01*
X97108301Y-73516000D01*
X97108301Y-71484000D01*
X97091566Y-71395062D01*
X97039004Y-71313377D01*
X96958802Y-71258578D01*
X96863600Y-71239299D01*
X95136400Y-71239299D01*
X95047462Y-71256034D01*
X94965777Y-71308596D01*
X94910978Y-71388798D01*
X94891699Y-71484000D01*
X94891699Y-71719691D01*
X94875335Y-71637424D01*
X94669953Y-71330047D01*
X94362576Y-71124665D01*
X94000000Y-71052544D01*
X93637424Y-71124665D01*
X93330047Y-71330047D01*
X93124665Y-71637424D01*
X93052544Y-72000000D01*
X93124665Y-72362576D01*
X93330047Y-72669953D01*
X93637424Y-72875335D01*
X94000000Y-72947456D01*
X94362576Y-72875335D01*
X94669953Y-72669953D01*
X94875335Y-72362576D01*
X94891699Y-72280309D01*
X94891699Y-73516000D01*
X94908434Y-73604938D01*
X94918126Y-73620000D01*
X91100000Y-73620000D01*
X91084393Y-73621537D01*
X91046125Y-73629149D01*
X91017287Y-73641094D01*
X90984844Y-73662771D01*
X90962771Y-73684844D01*
X90962667Y-73685000D01*
X86258514Y-73685000D01*
X86232827Y-73555864D01*
X86232389Y-73554806D01*
X86185793Y-73442312D01*
X85969020Y-73117888D01*
X85882112Y-73030980D01*
X85882109Y-73030979D01*
X85557688Y-72814207D01*
X85444137Y-72767173D01*
X85444136Y-72767173D01*
X85315000Y-72741486D01*
X85315000Y-61258514D01*
X85444136Y-61232827D01*
X85444137Y-61232827D01*
X85557688Y-61185793D01*
X85882109Y-60969021D01*
X85882112Y-60969020D01*
X85969020Y-60882112D01*
X86185793Y-60557688D01*
X86232827Y-60444137D01*
X86232827Y-60444136D01*
X86237100Y-60422656D01*
X86238516Y-60419115D01*
X86242794Y-60404533D01*
X86260037Y-60315000D01*
X91011972Y-60315000D01*
X91030692Y-60322754D01*
M02*
