G04 #@! TF.FileFunction,Legend,Top*
%FSLAX46Y46*%
G04 Gerber Fmt 4.6, Leading zero omitted, Abs format (unit mm)*
G04 Created by KiCad (PCBNEW 4.0.5) date Monday, February 13, 2017 'AMt' 09:35:04 AM*
%MOMM*%
%LPD*%
G01*
G04 APERTURE LIST*
%ADD10C,0.100000*%
%ADD11C,0.120000*%
%ADD12C,0.150000*%
G04 APERTURE END LIST*
D10*
D11*
X102400000Y-68350000D02*
X102400000Y-67650000D01*
X103600000Y-67650000D02*
X103600000Y-68350000D01*
X107600000Y-62900000D02*
X107600000Y-63600000D01*
X106400000Y-63600000D02*
X106400000Y-62900000D01*
X114900000Y-60150000D02*
X115600000Y-60150000D01*
X115600000Y-61350000D02*
X114900000Y-61350000D01*
X104150000Y-61650000D02*
X104850000Y-61650000D01*
X104850000Y-62850000D02*
X104150000Y-62850000D01*
X104100000Y-70850000D02*
X103400000Y-70850000D01*
X103400000Y-69650000D02*
X104100000Y-69650000D01*
X91650000Y-60650000D02*
X92350000Y-60650000D01*
X92350000Y-61850000D02*
X91650000Y-61850000D01*
X100900000Y-61900000D02*
X100900000Y-62600000D01*
X99700000Y-62600000D02*
X99700000Y-61900000D01*
X109650000Y-62900000D02*
X109650000Y-63600000D01*
X108450000Y-63600000D02*
X108450000Y-62900000D01*
X103900000Y-68350000D02*
X103900000Y-67650000D01*
X105100000Y-67650000D02*
X105100000Y-68350000D01*
X109150000Y-68900000D02*
X109850000Y-68900000D01*
X109850000Y-70100000D02*
X109150000Y-70100000D01*
X93650000Y-68600000D02*
X93650000Y-67900000D01*
X94850000Y-67900000D02*
X94850000Y-68600000D01*
X99100000Y-61900000D02*
X99100000Y-62600000D01*
X97900000Y-62600000D02*
X97900000Y-61900000D01*
X112850000Y-71600000D02*
X112150000Y-71600000D01*
X112150000Y-70400000D02*
X112850000Y-70400000D01*
X107900000Y-60150000D02*
X108600000Y-60150000D01*
X108600000Y-61350000D02*
X107900000Y-61350000D01*
X107920000Y-67760000D02*
X108850000Y-67760000D01*
X111080000Y-67760000D02*
X110150000Y-67760000D01*
X111080000Y-67760000D02*
X111080000Y-65600000D01*
X107920000Y-67760000D02*
X107920000Y-66300000D01*
X105800000Y-61250000D02*
X105800000Y-60250000D01*
X105800000Y-60250000D02*
X103700000Y-60250000D01*
X105800000Y-61250000D02*
X103700000Y-61250000D01*
X113300000Y-61250000D02*
X113300000Y-60250000D01*
X113300000Y-60250000D02*
X111200000Y-60250000D01*
X113300000Y-61250000D02*
X111200000Y-61250000D01*
X92100000Y-66110000D02*
X93900000Y-66110000D01*
X93900000Y-62890000D02*
X91450000Y-62890000D01*
X116400000Y-70410000D02*
X118200000Y-70410000D01*
X118200000Y-67190000D02*
X115750000Y-67190000D01*
D12*
X90000000Y-71000000D02*
X90000000Y-74000000D01*
X90000000Y-74000000D02*
X90000000Y-71000000D01*
X85000000Y-74000000D02*
X90000000Y-74000000D01*
X90000000Y-63000000D02*
X90000000Y-60000000D01*
X90000000Y-60000000D02*
X85000000Y-60000000D01*
X85000000Y-60000000D02*
X85000000Y-74000000D01*
X97270000Y-71230000D02*
X104890000Y-71230000D01*
X97270000Y-73770000D02*
X104890000Y-73770000D01*
X94450000Y-74050000D02*
X96000000Y-74050000D01*
X104890000Y-71230000D02*
X104890000Y-73770000D01*
X97270000Y-73770000D02*
X97270000Y-71230000D01*
X96000000Y-70950000D02*
X94450000Y-70950000D01*
X94450000Y-70950000D02*
X94450000Y-74050000D01*
X114450000Y-73550000D02*
X116000000Y-73550000D01*
X119810000Y-73270000D02*
X117270000Y-73270000D01*
X117270000Y-73270000D02*
X117270000Y-70730000D01*
X116000000Y-70450000D02*
X114450000Y-70450000D01*
X114450000Y-70450000D02*
X114450000Y-73550000D01*
X117270000Y-70730000D02*
X119810000Y-70730000D01*
X119810000Y-70730000D02*
X119810000Y-73270000D01*
X97000000Y-62175000D02*
X96000000Y-62175000D01*
X96000000Y-60825000D02*
X97000000Y-60825000D01*
X97000000Y-63675000D02*
X96000000Y-63675000D01*
X96000000Y-62325000D02*
X97000000Y-62325000D01*
X106325000Y-69400000D02*
X106325000Y-68400000D01*
X107675000Y-68400000D02*
X107675000Y-69400000D01*
X105575000Y-73000000D02*
X105575000Y-72000000D01*
X106925000Y-72000000D02*
X106925000Y-73000000D01*
X107675000Y-65750000D02*
X107675000Y-66750000D01*
X106325000Y-66750000D02*
X106325000Y-65750000D01*
X113000000Y-73675000D02*
X112000000Y-73675000D01*
X112000000Y-72325000D02*
X113000000Y-72325000D01*
X93275000Y-70000000D02*
X93275000Y-71000000D01*
X91925000Y-71000000D02*
X91925000Y-70000000D01*
X91925000Y-68250000D02*
X91925000Y-67250000D01*
X93275000Y-67250000D02*
X93275000Y-68250000D01*
X112675000Y-68000000D02*
X112675000Y-69000000D01*
X111325000Y-69000000D02*
X111325000Y-68000000D01*
X102675000Y-61000000D02*
X102675000Y-62000000D01*
X101325000Y-62000000D02*
X101325000Y-61000000D01*
X111825000Y-62600000D02*
X111825000Y-63600000D01*
X110475000Y-63600000D02*
X110475000Y-62600000D01*
X113325000Y-69000000D02*
X113325000Y-68000000D01*
X114675000Y-68000000D02*
X114675000Y-69000000D01*
X96353553Y-69500000D02*
G75*
G03X96353553Y-69500000I-353553J0D01*
G01*
X96000000Y-64725000D02*
X96000000Y-64500000D01*
X96000000Y-64500000D02*
X96225000Y-64500000D01*
X101000000Y-69275000D02*
X101000000Y-69500000D01*
X101000000Y-69500000D02*
X100775000Y-69500000D01*
X101000000Y-64725000D02*
X101000000Y-64500000D01*
X101000000Y-64500000D02*
X100775000Y-64500000D01*
D11*
X108100000Y-73610000D02*
X109900000Y-73610000D01*
X109900000Y-70390000D02*
X107450000Y-70390000D01*
D12*
X113675000Y-61675000D02*
X113675000Y-61725000D01*
X117825000Y-61675000D02*
X117825000Y-61820000D01*
X117825000Y-66825000D02*
X117825000Y-66680000D01*
X113675000Y-66825000D02*
X113675000Y-66680000D01*
X113675000Y-61675000D02*
X117825000Y-61675000D01*
X113675000Y-66825000D02*
X117825000Y-66825000D01*
X113675000Y-61725000D02*
X112275000Y-61725000D01*
D11*
X102000000Y-63100000D02*
X102000000Y-66400000D01*
X102000000Y-66400000D02*
X106000000Y-66400000D01*
X91650000Y-72400000D02*
X92350000Y-72400000D01*
X92350000Y-73600000D02*
X91650000Y-73600000D01*
M02*
