G04 #@! TF.FileFunction,Soldermask,Top*
%FSLAX46Y46*%
G04 Gerber Fmt 4.6, Leading zero omitted, Abs format (unit mm)*
G04 Created by KiCad (PCBNEW 4.0.5) date Monday, February 13, 2017 'AMt' 09:35:04 AM*
%MOMM*%
%LPD*%
G01*
G04 APERTURE LIST*
%ADD10C,0.100000*%
%ADD11R,1.150000X1.200000*%
%ADD12R,1.200000X1.150000*%
%ADD13R,1.200000X1.300000*%
%ADD14R,1.200000X1.200000*%
%ADD15R,1.460000X1.050000*%
%ADD16C,1.600000*%
%ADD17O,3.400000X1.900000*%
%ADD18R,1.924000X1.924000*%
%ADD19C,1.924000*%
%ADD20R,2.127200X2.432000*%
%ADD21O,2.127200X2.432000*%
%ADD22R,2.432000X2.432000*%
%ADD23O,2.432000X2.432000*%
%ADD24R,0.900000X1.300000*%
%ADD25R,1.300000X0.900000*%
%ADD26R,0.700000X1.200000*%
%ADD27R,1.200000X0.700000*%
%ADD28R,4.000000X4.000000*%
%ADD29R,1.950000X1.000000*%
%ADD30R,1.800000X1.600000*%
G04 APERTURE END LIST*
D10*
D11*
X103000000Y-68750000D03*
X103000000Y-67250000D03*
X107000000Y-62500000D03*
X107000000Y-64000000D03*
D12*
X114500000Y-60750000D03*
X116000000Y-60750000D03*
X103750000Y-62250000D03*
X105250000Y-62250000D03*
X104500000Y-70250000D03*
X103000000Y-70250000D03*
X91250000Y-61250000D03*
X92750000Y-61250000D03*
D11*
X100300000Y-61500000D03*
X100300000Y-63000000D03*
X109050000Y-62500000D03*
X109050000Y-64000000D03*
X104500000Y-68750000D03*
X104500000Y-67250000D03*
D12*
X108750000Y-69500000D03*
X110250000Y-69500000D03*
D11*
X94250000Y-69000000D03*
X94250000Y-67500000D03*
X98500000Y-61500000D03*
X98500000Y-63000000D03*
D12*
X113250000Y-71000000D03*
X111750000Y-71000000D03*
X107500000Y-60750000D03*
X109000000Y-60750000D03*
D13*
X110450000Y-66000000D03*
X108550000Y-66000000D03*
X109500000Y-68000000D03*
D14*
X103700000Y-60750000D03*
X105300000Y-60750000D03*
X111200000Y-60750000D03*
X112800000Y-60750000D03*
D15*
X91900000Y-63550000D03*
X91900000Y-64500000D03*
X91900000Y-65450000D03*
X94100000Y-65450000D03*
X94100000Y-63550000D03*
X94100000Y-64500000D03*
X116200000Y-67850000D03*
X116200000Y-68800000D03*
X116200000Y-69750000D03*
X118400000Y-69750000D03*
X118400000Y-67850000D03*
X118400000Y-68800000D03*
D16*
X87900000Y-69300000D03*
D17*
X87900000Y-60000000D03*
D18*
X90000000Y-70000000D03*
D19*
X90000000Y-68000000D03*
X90000000Y-66000000D03*
X90000000Y-64000000D03*
D17*
X87900000Y-74000000D03*
D16*
X87900000Y-64700000D03*
D20*
X96000000Y-72500000D03*
D21*
X98540000Y-72500000D03*
X101080000Y-72500000D03*
X103620000Y-72500000D03*
D22*
X116000000Y-72000000D03*
D23*
X118540000Y-72000000D03*
D24*
X95750000Y-61500000D03*
X97250000Y-61500000D03*
X95750000Y-63000000D03*
X97250000Y-63000000D03*
D25*
X107000000Y-68150000D03*
X107000000Y-69650000D03*
X106250000Y-71750000D03*
X106250000Y-73250000D03*
X107000000Y-67000000D03*
X107000000Y-65500000D03*
D24*
X111750000Y-73000000D03*
X113250000Y-73000000D03*
D25*
X92600000Y-71250000D03*
X92600000Y-69750000D03*
X92600000Y-67000000D03*
X92600000Y-68500000D03*
X112000000Y-69250000D03*
X112000000Y-67750000D03*
X102000000Y-62250000D03*
X102000000Y-60750000D03*
X111150000Y-63850000D03*
X111150000Y-62350000D03*
X114000000Y-67750000D03*
X114000000Y-69250000D03*
D26*
X96875000Y-69500000D03*
X97525000Y-69500000D03*
X98175000Y-69500000D03*
X98825000Y-69500000D03*
X99475000Y-69500000D03*
X100125000Y-69500000D03*
D27*
X101000000Y-68625000D03*
X101000000Y-67975000D03*
X101000000Y-67325000D03*
X101000000Y-66675000D03*
X101000000Y-66025000D03*
X101000000Y-65375000D03*
D26*
X100125000Y-64500000D03*
X99475000Y-64500000D03*
X98825000Y-64500000D03*
X98175000Y-64500000D03*
X97525000Y-64500000D03*
X96875000Y-64500000D03*
D27*
X96000000Y-65375000D03*
X96000000Y-66025000D03*
X96000000Y-66675000D03*
X96000000Y-67325000D03*
X96000000Y-67975000D03*
X96000000Y-68625000D03*
D28*
X98500000Y-67000000D03*
D15*
X107900000Y-71050000D03*
X107900000Y-72000000D03*
X107900000Y-72950000D03*
X110100000Y-72950000D03*
X110100000Y-71050000D03*
D29*
X113050000Y-62345000D03*
X113050000Y-63615000D03*
X113050000Y-64885000D03*
X113050000Y-66155000D03*
X118450000Y-66155000D03*
X118450000Y-64885000D03*
X118450000Y-63615000D03*
X118450000Y-62345000D03*
D30*
X102900000Y-65600000D03*
X105100000Y-65600000D03*
X105100000Y-63900000D03*
X102900000Y-63900000D03*
D12*
X91250000Y-73000000D03*
X92750000Y-73000000D03*
M02*
